<?xml version="1.0" encoding="UTF-8"?>
<svg id="Layer_1" data-name="Layer 1" xmlns="http://www.w3.org/2000/svg" viewBox="0 0 2171.76 1080">
  <defs>
    <style>
      .cls-1 {
        fill: #f38f1e;
      }

      .cls-2 {
        fill: #1d4ed7;
      }
    </style>
  </defs>
  <path class="cls-2" d="M925.67,369.95v149.89c0,14.39,2.32,28.77,7.66,42.14,8.05,20.17,21.08,35.98,39.56,46.97,16.11,9.58,34.75,14.05,53.49,14.05h106.34c10.76,0,21.47,2.83,30.34,8.92,8.87,6.08,15.03,14.23,17.28,25.36h-146.93v52.78h211.14v-52.27c0-12.35-2.24-24.69-7.4-35.9-11.46-24.89-34.22-42.37-69.36-51.74-8.28-2.21-16.85-3.2-25.42-3.2h-107.08c-6.46,0-12.92-1.07-18.88-3.55-.19-.08-.39-.16-.58-.24-18.9-8.03-30.85-26.95-30.84-47.48v-89.67s143.09,0,143.09,0c8.67,0,17.35,1.71,25.05,5.71,15.22,7.91,25.59,22.37,31.58,42.72h-149.1s0,59.23,0,59.23h200.26c.76-1.63,1.47-3.26,2.15-4.89,24.96-60.26-6.21-129.68-67.74-151.33-.37-.13-.73-.26-1.1-.38-14.55-4.99-29.92-7.12-45.3-7.12h-198.19Z"/>
  <rect class="cls-1" x="925.13" y="656.18" width="62.04" height="53.87"/>
</svg>